# xmcd CD database file
#
# Track frame offsets:
#	150
#	16630
#	30080
#	45340
#	62290
#	79425
#	95772
#	110645
#	128072
#	146522
#	164380
#	183092
#	201460
#	220397
#	237400
#
# Disc length: 3435 seconds
#
# Revision: 3
# Processed by: cddbd v1.5.2PL0 Copyright (c) Steve Scherf et al.
# Submitted via: CDex 1.51
#
DISCID=c50d690f
DTITLE=海援隊 - 贈る言葉
DYEAR=1993
DGENRE=フォーク
TTITLE0=こらえちゃっときない
TTITLE1=あんたが大将
TTITLE2=JODAN JODAN
TTITLE3=恋不思議
TTITLE4=心のかたち
TTITLE5=人として
TTITLE6=路上にて
TTITLE7=えきすとら
TTITLE8=贈る言葉
TTITLE9=サーフサイド サンセット
TTITLE10=母に捧げるバラード
TTITLE11=二流の人
TTITLE12=故郷未だ忘れ難く
TTITLE13=遥かなる人
TTITLE14=思えば遠くへ来たもんだ
EXTD=YEAR: 1993
EXTT0=
EXTT1=
EXTT2=
EXTT3=
EXTT4=
EXTT5=
EXTT6=
EXTT7=
EXTT8=
EXTT9=
EXTT10=
EXTT11=
EXTT12=
EXTT13=
EXTT14=
PLAYORDER=
